<?xml version="1.0" encoding="UTF-8"?>
<!DOCTYPE svg PUBLIC "-//W3C//DTD SVG 1.1//EN" "http://www.w3.org/Graphics/SVG/1.1/DTD/svg11.dtd">
<!-- Creator: CorelDRAW 2020 (64 Bit) -->
<svg xmlns="http://www.w3.org/2000/svg" xml:space="preserve" width="12.6mm" height="13.2mm" version="1.1" style="shape-rendering:geometricPrecision; text-rendering:geometricPrecision; image-rendering:optimizeQuality; fill-rule:evenodd; clip-rule:evenodd"
viewBox="0 0 1260 1320"
 xmlns:xlink="http://www.w3.org/1999/xlink"
 xmlns:xodm="http://www.corel.com/coreldraw/odm/2003">
 <defs>
  <style type="text/css">
   <![CDATA[
    .fil0 {fill:#23A8F2}
   ]]>
  </style>
 </defs>
 <g id="Camada_x0020_1">
  <metadata id="CorelCorpID_0Corel-Layer"/>
  <path class="fil0" d="M392.64 901.58c3.77,4.62 7.91,10.02 12.01,15.17 8.84,11.11 33.52,38.88 37.97,47.03 8.05,-3.51 48.51,-57.49 56.91,-67.56 6.82,-8.17 5.99,-5.69 7.64,-12.11 -14.14,-4.95 -56.85,-33.46 -68.79,-36.87 -11.98,14.53 -1.18,10.04 -32.52,41.95 -5.93,6.03 -8.75,6.26 -13.22,12.39zm543.1 51.67c-73.1,14.86 -53.15,122.22 20.3,110.17 74.29,-12.18 50.36,-124.52 -20.3,-110.17zm0.46 -55.53c-63.43,6.95 -107.34,61.96 -101.04,120.69 6.09,56.81 55.78,107.26 120.52,100.46 57.26,-6.02 107.5,-56.14 100.45,-120.83 -4,-36.71 -19.15,-55.26 -37.84,-73.23 -17.09,-16.44 -50.16,-30.59 -82.09,-27.09zm-878.08 249.78l414.67 0.23c4.79,-32.81 15.88,-65.09 27.63,-92.9 11.98,-28.38 40.16,-77.06 41.69,-80.95 -7.18,-4.51 -13.96,-11.84 -20.8,-15.91 -9.78,7.44 -49.41,63.95 -60.78,72.46 -23.25,17.38 -40.96,-8.34 -54.44,-25.37l-61.93 -75.35 -88.35 36.73c-47.53,19.91 -84.14,33.61 -124.55,64.13 -11.25,8.5 -23.88,19.44 -32.77,30.69 -18.98,24.02 -36.47,52.99 -40.37,86.24zm864.34 -312.43c-15.78,5.35 -10.82,-0.61 -41.03,13.08 -46.33,20.99 -34.46,23.93 -72.15,-3.52 -6.59,-4.8 -27.68,-20.47 -33.74,-22.49l-16.48 15.58c2.51,6.62 17.4,26.42 22.31,33.26 5.58,7.78 18.03,24.23 21.63,32.15 -14.54,18.96 -19.2,23.18 -26.31,52.22 -7.28,29.8 9.01,22.51 -42.51,31.66 -12.96,2.3 -26.11,4.95 -39.25,6.94l0.11 23.22c11.66,1.87 68.71,11.03 73.83,14.54 3.08,3.09 3.05,4.21 4.72,9.44l19.26 51.93c3.25,7.33 7.73,12.39 10.17,18.87l-43.51 63.37c3.11,5.92 10.69,12.73 15.93,16.55 11.31,-3.75 62.7,-44.44 68.58,-42.83 1.71,0.47 14.05,9.01 16.81,10.65 13.13,7.78 25.96,11.98 40.41,16.8 5.31,1.77 17.63,4.5 20.96,8.66 6.58,9.53 6.04,58.56 12.64,73.37l21.65 0.5c6.88,-14 8.92,-67.4 15.6,-77.36 2.85,-3.01 43.92,-15.21 59.36,-22.57 5.51,-2.63 14.45,-8.74 17.91,-9.91 4.79,-1.62 25.97,15.63 32.43,19.92 7.14,4.73 27.19,20.29 34,22.45 5.79,-3.6 12.84,-10.36 16,-16.23 -4.63,-9.38 -16.26,-23.01 -22.72,-31.96 -7.41,-10.25 -16.76,-21.41 -23.59,-31.94 3.3,-5.89 7.55,-11.31 11.05,-17.27 13.29,-22.6 19.73,-57.25 25.77,-62.5 4.71,-3.26 63.49,-15.62 73.95,-17.19l0.19 -23.29 -75.63 -11.23c-6.51,-2.36 -13.6,-33.81 -16.66,-41.96 -6.04,-16.14 -10.93,-24.36 -18.34,-37.95 4.24,-9.84 39.03,-53.58 43.53,-65.05l-13.14 -13.21c-11.19,4.29 -54.88,42.57 -65.37,46.18 -14.03,-7.37 -11.66,-10.08 -37.08,-20.55 -10.49,-4.33 -34.88,-10.2 -41.88,-15.45 -3.56,-6.84 -10.33,-62.13 -11.91,-74.42l-22.03 0.04c-6.78,11.67 -8.63,62.63 -15.47,77.5zm-32.27 479.44l113.82 0 16.51 -86.11c5.13,-2.37 26,-11.27 29.46,-10.39l49.47 32.41c8.1,5.27 16.2,11.61 24.29,15.97l82.89 -83.41c-5.8,-6.33 -12.71,-16.94 -17.56,-23.73 -6.08,-8.5 -11.77,-16.05 -17.59,-24.17 -3.25,-4.55 -16.31,-20.34 -16.33,-24.61 0,-0.01 9.2,-28.91 11.47,-30.38l85.27 -16.28 0 -116.64 -88.72 -13.89 -10.77 -29.32 48.59 -73.92 -79.05 -79.81c-7.08,3.07 -17.95,12.1 -24.59,16.91 -7.95,5.78 -15.76,11.57 -24.16,17.61 -3.27,2.35 -21.37,16.56 -24.21,16.87 -1.61,0.18 -25.29,-9.16 -28.57,-10.88l-14.12 -88.44 -115.96 0.19 -16.92 87.57 -7.61 3.91c-27.41,9.27 -14.55,13.32 -46.84,-10.03 -7.42,-5.36 -43.86,-31.61 -49.63,-33.71l-61.51 61.97c-6.39,6.35 -13.61,14.71 -20.25,19.74 3.34,7.95 33.67,47.91 42.12,59.81 9.14,12.88 10.07,7.7 -4.19,41.72l-85.81 14.18 0.11 116.02 84.7 13.79 12.4 28.27c-8.8,17.13 -45.63,64.8 -49.2,75.74l81.44 81.91c6.67,-2.12 19.73,-11.92 26.83,-16.61 6.6,-4.37 46.56,-32.18 50.55,-32.04 1.65,0.06 11.68,4.99 14.94,6.08 5.77,1.92 10.59,2.43 15.16,5.51l13.57 88.19zm-892.08 -111.86l640.86 0.27c-0.5,-5.92 -7.75,-15.95 -10.61,-21.15 -48.36,-88.16 -60.15,-203.34 -22.44,-298.33 6.44,-16.21 12.76,-29.59 20.84,-45.54 9.17,-18.09 20.32,-31.63 25.46,-41.96 -8.43,3.05 -18.19,9.64 -25.86,13.71l-51.53 28.84c-12.12,6.49 -14.89,12.45 -27.39,5.07l-103 -56.34 -0.04 -92.91c-24.1,-11.45 -35.13,-34.65 -45.94,-59.04 -13.74,-30.98 -17.97,-50.63 -18.46,-88.55 -20.9,0 -34.76,8.62 -44.66,-40.22 -7.63,-37.64 3.4,-43.12 23.9,-56.61 -3.42,-20.58 -10.47,-42.14 -14.64,-64.03 -12.96,-68.05 -18.06,-149.97 7.03,-212.84 16.03,-40.15 39.37,-65.21 75.19,-84.11 52.85,-27.89 181.15,-44.35 224.04,0.13 2.87,2.97 5.82,7.23 8.38,11.7 4.06,7.08 2.08,7.92 10.72,9.51 27.3,5.02 38.44,6.02 57.03,21.71 12.67,10.69 24.2,27.39 32.88,47.56 16.76,38.92 20.83,93.26 18.77,140.61 -1,23.24 -4.17,48.31 -8.73,70.03 -7.11,33.89 -14.62,44.25 -18.75,60.99 20.69,10.86 34.13,9.44 27.79,53.2 -1.73,11.95 -4.43,22.89 -9.53,32.3 -7.3,13.49 -14.58,9.67 -31.99,9.87 -6.04,13.93 -3.25,60.69 -41.42,120.85 -10.04,15.82 -11.37,17.68 -28.44,27.16l-0.05 77.47 51.02 -49.6c18.34,-16.25 31.03,-38.91 41.59,-60.45 7.17,-14.61 17.22,-37.83 21.43,-54.35 3.29,-12.89 0.06,-9.56 10.19,-16.15 40.73,-26.45 55.07,-107.25 33.53,-149.43 -10.58,-20.73 -8.97,-4.85 -1.8,-36.82 25.83,-115.28 16.36,-311.96 -118.08,-344.37 -18.37,-4.43 -6.75,-11.42 -45.33,-32.04 -71.99,-38.48 -185.78,-22.13 -252.45,8.38 -105.22,48.15 -136.33,166 -127.77,277.04 2.45,31.82 6.45,60.02 12.35,90.2 1.3,6.64 3.67,14.43 4.54,20.38 1.74,11.84 -14.92,15.7 -18.4,56.62 -2.12,24.91 8.57,63.54 19.34,81.42 6.26,10.39 14.19,21.21 23.58,27.43 9.6,6.35 6.43,2.02 9.32,15.5 6.72,31.31 32.57,88.88 53.92,111.54 3.95,4.2 4.04,2.05 4.67,9.38 1.04,12.03 1.44,93.47 -2.04,100.48 -14.59,29.34 -59.92,50.49 -89.93,63.15 -97.11,40.97 -191.89,67.25 -254.92,153.37 -29.07,39.72 -44.47,97.55 -44.17,158.97z"/>
 </g>
</svg>
