<?xml version="1.0" encoding="UTF-8"?>
<!DOCTYPE svg PUBLIC "-//W3C//DTD SVG 1.1//EN" "http://www.w3.org/Graphics/SVG/1.1/DTD/svg11.dtd">
<!-- Creator: CorelDRAW 2020 (64 Bit) -->
<svg xmlns="http://www.w3.org/2000/svg" xml:space="preserve" width="3mm" height="3mm" version="1.1" style="shape-rendering:geometricPrecision; text-rendering:geometricPrecision; image-rendering:optimizeQuality; fill-rule:evenodd; clip-rule:evenodd"
viewBox="0 0 300 300"
 xmlns:xlink="http://www.w3.org/1999/xlink"
 xmlns:xodm="http://www.corel.com/coreldraw/odm/2003">
 <defs>
  <style type="text/css">
   <![CDATA[
    .fil0 {fill:#FEFEFE;fill-rule:nonzero}
   ]]>
  </style>
 </defs>
 <g id="Camada_x0020_1">
  <metadata id="CorelCorpID_0Corel-Layer"/>
  <g id="_2521799966688">
   <path class="fil0" d="M210.11 68.88c-8.22,0 -14.89,6.67 -14.89,14.89 0,8.23 6.67,14.89 14.89,14.89 8.23,0 14.89,-6.66 14.89,-14.89 0,-8.22 -6.66,-14.89 -14.89,-14.89z"/>
   <path class="fil0" d="M143.91 190.6c-22.09,0 -40.07,-17.98 -40.07,-40.07 0,-22.09 17.98,-40.07 40.07,-40.07 22.09,0 40.07,17.98 40.07,40.07 0,22.09 -17.98,40.07 -40.07,40.07zm0 -102.62c-34.49,0 -62.56,28.06 -62.56,62.55 0,34.49 28.07,62.55 62.56,62.55 34.49,0 62.55,-28.06 62.55,-62.55 0,-34.49 -28.06,-62.55 -62.55,-62.55z"/>
   <path class="fil0" d="M92.16 47.43c-28.9,0 -52.4,23.5 -52.4,52.4l0 101.41c0,28.89 23.5,52.39 52.4,52.39l101.41 0c28.89,0 52.4,-23.5 52.4,-52.39l0 -101.41c0,-28.9 -23.51,-52.4 -52.4,-52.4l-101.41 0zm101.41 230.1l-101.41 0c-42.08,0 -76.29,-34.23 -76.29,-76.29l0 -101.41c0,-42.08 34.21,-76.3 76.29,-76.3l101.41 0c42.07,0 76.3,34.22 76.3,76.3l0 101.41c0,42.06 -34.23,76.29 -76.3,76.29z"/>
  </g>
 </g>
</svg>
