<?xml version="1.0" encoding="UTF-8"?>
<!DOCTYPE svg PUBLIC "-//W3C//DTD SVG 1.1//EN" "http://www.w3.org/Graphics/SVG/1.1/DTD/svg11.dtd">
<!-- Creator: CorelDRAW 2020 (64 Bit) -->
<svg xmlns="http://www.w3.org/2000/svg" xml:space="preserve" width="37mm" height="24.3mm" version="1.1" style="shape-rendering:geometricPrecision; text-rendering:geometricPrecision; image-rendering:optimizeQuality; fill-rule:evenodd; clip-rule:evenodd"
viewBox="0 0 3700 2430"
 xmlns:xlink="http://www.w3.org/1999/xlink"
 xmlns:xodm="http://www.corel.com/coreldraw/odm/2003">
 <defs>
  <style type="text/css">
   <![CDATA[
    .fil0 {fill:#0066CC}
    .fil2 {fill:#0066CC;fill-rule:nonzero}
    .fil1 {fill:#23A8F2;fill-rule:nonzero}
   ]]>
  </style>
 </defs>
 <g id="Camada_x0020_1">
  <metadata id="CorelCorpID_0Corel-Layer"/>
  <g id="_2628201474432">
   <path class="fil0" d="M1766.2 1159.36c-34.2,13.6 -101.26,3.88 -143.44,3.91l-0.85 -618.86 -411.49 150.08 -2.03 778.51 -1196.16 1.1 -1.32 47.43 1247.26 1.75 1.11 -395.51c-0.05,-60.83 -7.72,-365.45 2.46,-396.33l308.04 -116.35 0.96 547.52 -176.14 0.47 -0.56 359.43 227.64 0.39 0.33 -309.84 144.66 0.38 1.58 309.68 429.55 -0.06 0.38 -632.37c25.8,7.24 174.1,135.32 212.82,165.19 15.88,12.25 17.1,10.87 17.95,36.47 4.68,141.45 -5.53,288.41 0.19,429.99l1266.79 0.84 -0.15 -47.61 -1217.27 -2.41 -0.57 -426.44c-10.45,-11.14 -9.34,-7.5 -20.88,-16.96l-223.66 -181.34c-16.75,-13.71 -68.16,-59.15 -84.37,-65.12l-0.19 688.02c-60.59,15.16 -249.96,-3.93 -329.86,2.83l0.02 -261.16 246.28 0.09 -0.51 -1005.73 -293.85 -192.78c-11.8,48.67 6.26,1093.23 -4.72,1144.79zm52.81 3.48l194.48 0.34 1.05 -932.83c-30.88,-15.75 -66.89,-42.49 -96.85,-61.76 -23.38,-15.05 -75.73,-52.56 -97.76,-61.11l-0.92 1055.36zm-376.25 310.3l127.41 1.31 0.58 -261.36 -126.73 0.17 -1.26 259.88z"/>
   <path class="fil1" d="M512.71 2161.81l-114.17 -242.39 -114.17 242.39 228.34 0zm72.02 153.7l-372.38 0 -41.28 87.82 -171.26 0 340.76 -724.55 114.17 0 340.77 724.55 -169.51 0 -41.27 -87.82zm461.08 -483.04l0 263.48 109.78 0c36.3,0 67.33,-12.89 93.09,-38.65 25.77,-25.76 38.65,-56.79 38.65,-93.09 0,-36.3 -12.88,-67.33 -38.65,-93.1 -25.76,-25.76 -56.79,-38.64 -93.09,-38.64l-109.78 0zm0 417.17l0 153.69 -153.7 0 0 -724.55 263.48 0c79.04,0 146.37,27.81 202,83.43 55.62,55.62 83.43,122.96 83.43,202 0,79.04 -27.81,146.37 -83.43,202 -55.63,55.62 -122.96,83.43 -202,83.43l-109.78 0zm1009.99 -570.86l0 153.69 -329.35 0 0 131.74 263.48 0 0 153.69 -263.48 0 0 131.74 329.35 0 0 153.69 -483.04 0 0 -724.55 483.04 0z"/>
   <path class="fil2" d="M2784.13 2300.58c-77.28,83.14 -171.84,124.71 -283.67,124.71 -106.57,0 -197.32,-37.47 -272.26,-112.42 -74.94,-74.94 -112.42,-165.69 -112.42,-272.26 0,-105.97 37.48,-196.43 112.42,-271.37 74.94,-74.95 165.69,-112.42 272.26,-112.42 105.97,0 196.43,37.47 271.37,112.42l-108.9 108.9c-45.08,-45.08 -99.24,-67.63 -162.47,-67.63 -63.82,0 -118.27,22.55 -163.36,67.63 -45.08,45.08 -67.62,99.24 -67.62,162.47 0,63.82 22.54,118.28 67.62,163.36 45.09,45.08 99.54,67.63 163.36,67.63 48.59,0 91.92,-13.47 129.98,-40.4l0 -113.3 -140.52 0 0 -153.69 294.21 0 0 336.37zm506.75 -643.76c105.98,0 196.44,37.47 271.38,112.42 74.95,74.94 112.42,165.4 112.42,271.37 0,106.57 -37.47,197.32 -112.42,272.26 -74.94,74.95 -165.4,112.42 -271.38,112.42 -106.56,0 -197.31,-37.47 -272.26,-112.42 -74.94,-74.94 -112.41,-165.69 -112.41,-272.26 0,-105.97 37.47,-196.43 112.41,-271.37 74.95,-74.95 165.7,-112.42 272.26,-112.42zm0 153.69c-63.82,0 -118.27,22.55 -163.35,67.63 -45.09,45.08 -67.63,99.24 -67.63,162.47 0,63.82 22.54,118.28 67.63,163.36 45.08,45.08 99.53,67.63 163.35,67.63 63.24,0 117.39,-22.55 162.48,-67.63 45.08,-45.08 67.62,-99.54 67.62,-163.36 0,-63.23 -22.54,-117.39 -67.62,-162.47 -45.09,-45.08 -99.24,-67.63 -162.48,-67.63z"/>
  </g>
 </g>
</svg>
