<?xml version="1.0" encoding="UTF-8"?>
<!DOCTYPE svg PUBLIC "-//W3C//DTD SVG 1.1//EN" "http://www.w3.org/Graphics/SVG/1.1/DTD/svg11.dtd">
<!-- Creator: CorelDRAW 2020 (64 Bit) -->
<svg xmlns="http://www.w3.org/2000/svg" xml:space="preserve" width="11mm" height="11mm" version="1.1" style="shape-rendering:geometricPrecision; text-rendering:geometricPrecision; image-rendering:optimizeQuality; fill-rule:evenodd; clip-rule:evenodd"
viewBox="0 0 1100 1100"
 xmlns:xlink="http://www.w3.org/1999/xlink"
 xmlns:xodm="http://www.corel.com/coreldraw/odm/2003">
 <defs>
  <style type="text/css">
   <![CDATA[
    .fil0 {fill:#23A8F2}
   ]]>
  </style>
 </defs>
 <g id="Camada_x0020_1">
  <metadata id="CorelCorpID_0Corel-Layer"/>
  <path class="fil0" d="M44.89 145.13c-2.59,38.26 4.67,135.38 7.15,162.66 4.9,53.94 12.67,107.96 24.35,160.86 30.33,137.32 85.27,272.13 170.55,384.73 6.3,8.32 12.39,16.82 19.09,24.82 7.47,8.92 15.12,17.63 22.09,26.94 6.46,8.64 15.23,15.92 22.22,24.38 6.85,8.3 14.35,15.88 21.96,23.46 30.62,30.48 65.84,58.48 100.81,83.82 17.92,13 97,63.55 114.29,64.83 24.95,1.3 140.78,-82.6 163.6,-101.3 46.59,-38.19 99.67,-93.88 135.16,-142.53 122.06,-167.31 177.43,-341.69 196.96,-546.82 2.53,-26.66 10.01,-127.93 7.07,-165.82 -101.53,-1.51 -169.68,-11.64 -261.53,-63.71 -77.66,-44.02 -148.63,-77.89 -240.19,-78.29 -103.73,-0.45 -153.34,34.89 -241.46,78.18 -108.98,53.55 -145.95,61.25 -262.12,63.79zm943.23 73.85c2.17,157.02 -47.43,361.85 -123.43,498.57 -36.1,64.92 -66.07,103.19 -112.27,159.8 -6.06,7.43 -13.14,12.74 -19.68,19.45 -19.66,20.19 -39.33,41.35 -61.83,58.41 -6.99,5.3 -13.62,11.04 -20.58,16.39 -19.11,14.69 -83.48,62.25 -105.49,60.26 -20.89,-1.89 -83.38,-48.78 -102.75,-63.16 -42.8,-31.77 -84,-74.4 -118.42,-115.04 -144.73,-170.88 -213.48,-412.19 -216.22,-633.88l-0.19 -15.32 15.23 -1.71c81.29,-9.15 136.08,-26.76 207.38,-65.32 73.17,-39.58 131.9,-74.39 218.73,-74.09 85.87,0.29 145.73,34.91 218,74.83 62.71,34.64 133.93,59.35 205.72,64.15l15.58 1.04 0.22 15.62zm-642.8 274.62c-13.57,13.19 -32.8,30.01 -43.35,42.28l198.2 198.45 339.6 -338.51c-12.37,-13.44 -31.23,-32.75 -43.51,-43.25l-293.84 294.43 -11.77 -8.89c-25.21,-19.03 -56.18,-54.19 -78.68,-77.37 -11.88,-12.24 -46.81,-50.26 -66.65,-67.14z"/>
 </g>
</svg>
