<?xml version="1.0" encoding="UTF-8"?>
<!DOCTYPE svg PUBLIC "-//W3C//DTD SVG 1.1//EN" "http://www.w3.org/Graphics/SVG/1.1/DTD/svg11.dtd">
<!-- Creator: CorelDRAW 2020 (64 Bit) -->
<svg xmlns="http://www.w3.org/2000/svg" xml:space="preserve" width="16mm" height="13mm" version="1.1" style="shape-rendering:geometricPrecision; text-rendering:geometricPrecision; image-rendering:optimizeQuality; fill-rule:evenodd; clip-rule:evenodd"
viewBox="0 0 1600 1300"
 xmlns:xlink="http://www.w3.org/1999/xlink"
 xmlns:xodm="http://www.corel.com/coreldraw/odm/2003">
 <defs>
  <style type="text/css">
   <![CDATA[
    .fil0 {fill:#23A8F2}
   ]]>
  </style>
 </defs>
 <g id="Camada_x0020_1">
  <metadata id="CorelCorpID_0Corel-Layer"/>
  <path class="fil0" d="M472.51 842.25c-1.94,31.56 -20.4,89.27 -29.93,118.94 -6.63,20.63 -12.69,33.97 -20.65,54.08 -34.45,87.03 52.18,68.26 143.54,68.26 51.61,0 103.31,-0.28 154.91,0.06 0.21,23.33 0.07,46.73 0.06,70.06 -0.06,72.8 5.15,58.91 155.24,58.91 94.82,0 191.46,-1.84 286.05,0.17 4.06,66.64 -11.89,57.57 103.57,57.57l243.21 0.01c34.4,0.14 44.85,-1.01 44.73,-37.2l-0.02 -568.37c0.18,-36.34 -6.57,-40.13 -42.23,-39.96 -34.91,0.17 -134.72,4.5 -162.42,-1.03 -3.07,-47.34 -0.38,-104.19 -0.36,-152.56 0.03,-68.49 -2.92,-62.7 -93.34,-61.62 -1.64,-48.51 4.63,-331.19 -2.6,-349.86 -9.68,-25.02 -30.04,-25.34 -61.42,-25.31l-975.3 0.01c-203.8,0 -176.2,-27.63 -176.2,176.2l0 531.08c0,23.34 -5.48,64.94 6.81,82.55 15.34,21.98 42.59,17.41 72.61,17.41 59.48,0 318.24,-3.13 353.74,0.6zm-356.69 -77.2l604.73 0.03 -0.13 -306.33c-0.17,-43.37 7.49,-49.39 51.02,-49.27 31.98,0.08 383.4,1.77 406.54,-0.62l0.2 -297.33 -1062.26 -0.66 -0.1 654.18zm662.18 386.44l383.52 -0.02c5.72,-59.65 -4.38,-486.7 1.67,-509.35 5.84,-21.87 32.41,-17.32 54.96,-17.31 23.82,0.01 47.95,0.37 71.74,-0.12l0.75 -157.92 -511.88 -0.12 -0.76 684.84zm430.19 71.55l297.99 0.47 0.28 -551.64 -298.35 0.28 0.08 550.89z"/>
 </g>
</svg>
