<?xml version="1.0" encoding="UTF-8"?>
<!DOCTYPE svg PUBLIC "-//W3C//DTD SVG 1.1//EN" "http://www.w3.org/Graphics/SVG/1.1/DTD/svg11.dtd">
<!-- Creator: CorelDRAW 2020 (64 Bit) -->
<svg xmlns="http://www.w3.org/2000/svg" xml:space="preserve" width="3mm" height="3mm" version="1.1" style="shape-rendering:geometricPrecision; text-rendering:geometricPrecision; image-rendering:optimizeQuality; fill-rule:evenodd; clip-rule:evenodd"
viewBox="0 0 300 300"
 xmlns:xlink="http://www.w3.org/1999/xlink"
 xmlns:xodm="http://www.corel.com/coreldraw/odm/2003">
 <defs>
  <style type="text/css">
   <![CDATA[
    .fil0 {fill:#FEFEFE}
   ]]>
  </style>
 </defs>
 <g id="Camada_x0020_1">
  <metadata id="CorelCorpID_0Corel-Layer"/>
  <path class="fil0" d="M22.18 151.4c0,18.24 5.32,40.8 13.28,56.39 4.87,9.53 2.55,10.26 -1.07,23.95l-10.66 39.4c-0.65,2.3 -1.86,5.75 -2.07,8.26l56.15 -14.56c11.63,-3.01 9.24,-2.65 21.29,2.68l13.22 4.84c17.12,4.61 22.57,4.98 39.93,4.98 21.01,0 46.73,-8.42 62.9,-19.17 5.83,-3.87 12.26,-8.18 17.22,-13.23 2.83,-2.87 4.25,-3.33 7.55,-7.42 7.19,-8.92 9.35,-9.86 16.1,-21.58 9.85,-17.12 17.52,-38.42 17.52,-58.35 0,-18.28 0.06,-26.08 -5.62,-43.93 -3.96,-12.47 -9.62,-24.71 -17.46,-35.18 -6.45,-8.62 -13.19,-16.93 -21.82,-23.6 -5.38,-4.16 -11.49,-9.29 -17.55,-12.39 -11.19,-5.74 -19.4,-10.19 -32.31,-13.1 -9.41,-2.13 -11.08,-2.01 -19.47,-3.25 -25.58,-3.79 -62.73,7.53 -83.15,22.33 -1.71,1.24 -2.89,2.04 -4.5,3.24l-8.41 7.08c-1.9,1.48 -2.65,2.32 -4.29,3.96 -22.49,22.49 -36.78,55.15 -36.78,88.65zm27.76 99.88l22.82 -5.91c16.77,-4.35 18.98,-3.11 33.88,3.48l11.75 4.31c13.43,3.57 19.7,4.06 33.86,4.06 16.33,0 38.23,-6.81 51.77,-15.8 4.65,-3.1 10.09,-6.59 14.01,-10.58 2,-2.03 4.48,-3.77 6.23,-5.94 5.76,-7.16 9.65,-10.88 14.32,-19 8.05,-13.97 14.84,-32.01 14.84,-48.31 0,-15.18 -0.01,-23.18 -4.67,-37.83 -3.27,-10.29 -7.9,-20.55 -14.4,-29.23 -5.28,-7.05 -11,-14.31 -18.01,-19.73 -4.28,-3.31 -9.63,-7.95 -14.42,-10.4 -9.37,-4.81 -17.18,-9.05 -27.57,-11.39 -6.22,-1.4 -11.72,-2.05 -17.98,-2.97 -20.12,-2.98 -52.08,6.89 -68.41,18.72 -1.27,0.92 -2.56,1.81 -3.82,2.74l-8.24 6.95 -0.34 0.26c-0.87,0.67 -1.6,1.49 -2.38,2.27 -19.32,19.32 -30.88,47.09 -30.88,74.42 0,14.77 4.37,34.1 11.08,47.25 8.34,16.34 4.75,22.38 0.43,38.34l-3.87 14.29zm34.18 -127.75c0,10.68 4.15,17.92 8.61,25.45l17.06 23.2c5.64,5.79 4.02,4.86 11.61,11.61 6.22,5.55 8.75,7.59 15.98,12.41 10.62,7.08 28.65,15.59 42.22,15.59 9.26,0 16.35,-0.98 23.88,-7.61 6.38,-5.63 10.78,-20.1 6.61,-23.4 -2.52,-2 -19.78,-9.81 -24.12,-12.01 -5.04,-2.56 -6.59,-2.91 -12.05,4.3 -8.68,11.45 -8.17,14.11 -25.38,3.72 -1.15,-0.7 -2.01,-1.21 -3.23,-1.94l-9.71 -7.32c-4.72,-4.59 -18.97,-19.07 -18.97,-24.91 0,-4.34 11.41,-11.85 9.96,-18.7 -0.32,-1.53 -0.79,-2.29 -1.4,-3.79 -0.61,-1.48 -0.85,-2.31 -1.4,-3.76 -1.4,-3.7 -7.28,-18.12 -9.34,-20.6 -1.27,-1.53 -1.1,-1.37 -3.38,-1.78 -10.04,-1.79 -15.69,0.99 -21.31,10.4 -2.99,4.99 -5.64,11.12 -5.64,19.14z"/>
 </g>
</svg>
